<?xml version="1.0" standalone="no"?>
<!DOCTYPE svg PUBLIC "-//W3C//DTD SVG 20010904//EN"
 "http://www.w3.org/TR/2001/REC-SVG-20010904/DTD/svg10.dtd">
<svg version="1.0" xmlns="http://www.w3.org/2000/svg"
 width="180.000000pt" height="180.000000pt" viewBox="0 0 180.000000 180.000000"
 preserveAspectRatio="xMidYMid meet">

<g transform="translate(0.000000,180.000000) scale(0.100000,-0.100000)"
fill="#000000" stroke="none">
<path d="M1052 1530 l-72 -81 0 -119 c0 -66 -3 -120 -7 -120 -3 0 -16 8 -27
17 -18 15 -18 14 2 -8 l22 -25 0 -502 0 -502 -90 0 -90 0 0 570 c0 314 3 570
6 570 3 0 32 -21 65 -46 32 -25 59 -43 59 -40 0 12 -135 107 -147 104 -7 -2
-53 -34 -102 -73 l-88 -70 -7 -149 c-3 -82 -6 -310 -6 -508 l0 -358 -90 0 -90
0 0 455 0 456 30 -16 c17 -9 30 -13 30 -11 0 9 -58 36 -78 36 -10 0 -27 -7
-38 -16 -18 -15 -18 -15 3 -5 12 6 24 11 27 11 4 0 5 -204 4 -452 l-3 -453
-87 -3 -88 -3 0 411 c0 225 4 410 8 410 5 0 17 7 28 15 17 14 15 14 -13 0
l-33 -16 0 -414 0 -414 478 2 c262 1 444 3 405 5 l-73 3 0 629 0 630 51 57
c28 32 60 66 71 76 12 10 19 20 16 22 -3 3 -37 -31 -76 -75z m-284 -767 l-3
-568 -87 -3 -88 -3 0 505 0 505 81 66 c45 36 85 65 90 65 5 0 8 -232 7 -567z"/>
<path d="M673 1224 c-71 -55 -73 -59 -73 -101 0 -27 5 -43 12 -43 9 0 9 -3 0
-12 -7 -7 -12 -30 -12 -51 0 -33 3 -39 18 -35 16 5 19 -2 21 -42 1 -35 -2 -49
-14 -53 -12 -5 -15 2 -15 32 0 22 5 42 10 44 6 3 5 4 -2 3 -18 -3 -24 -96 -7
-96 10 0 10 -3 1 -12 -16 -16 -16 -88 1 -88 34 1 52 25 52 72 0 40 -2 45 -17
37 -39 -21 -29 -6 14 21 50 31 74 38 62 18 -4 -7 -3 -8 4 -4 9 5 12 -6 12 -38
0 -34 -4 -46 -15 -46 -11 0 -15 11 -15 40 0 27 -4 38 -12 35 -8 -3 -13 -24
-13 -54 l0 -49 30 12 c27 11 30 18 33 61 2 32 -1 51 -10 56 -9 6 -10 9 -1 9 9
0 12 30 12 110 0 72 -4 110 -11 110 -7 0 -7 5 1 14 7 8 11 35 9 61 l-3 47 -72
-58z m65 -6 c-4 -55 -28 -64 -28 -10 0 21 3 42 7 45 16 17 24 4 21 -35z m-48
-38 c0 -24 -5 -40 -12 -40 -6 0 -8 -3 -5 -7 4 -3 16 2 26 11 11 10 25 15 30
11 16 -9 14 -95 -1 -96 -10 0 -10 -2 0 -6 10 -4 7 -9 -8 -20 -12 -8 -24 -12
-27 -9 -3 3 1 8 8 11 10 4 13 17 11 45 -3 25 1 47 9 57 8 9 -5 4 -28 -10 -24
-15 -43 -23 -43 -17 0 5 4 10 8 10 4 0 6 16 4 35 -5 39 2 65 18 65 5 0 10 -18
10 -40z m-52 -40 c-2 -23 1 -40 7 -41 6 0 7 -2 0 -5 -6 -2 -9 -24 -7 -49 4
-40 6 -44 22 -35 27 14 26 15 29 -39 1 -37 -2 -50 -15 -55 -14 -5 -16 0 -13
37 4 43 3 44 -23 41 -26 -3 -28 -1 -28 30 0 18 3 36 7 40 11 10 12 36 2 36
-10 0 -12 63 -2 73 16 17 25 4 21 -33z m52 -69 c0 -25 -5 -41 -15 -45 -12 -4
-15 3 -15 33 0 21 3 41 7 44 15 16 23 5 23 -32z m48 -83 c-4 -55 -28 -64 -28
-10 0 21 3 42 7 45 16 17 24 4 21 -35z m-100 -165 c-4 -48 -28 -57 -28 -10 0
18 3 37 7 40 16 16 24 4 21 -30z"/>
<path d="M705 797 c-16 -9 -20 -23 -20 -60 0 -26 0 -47 1 -47 1 0 15 5 33 11
29 10 31 14 31 60 0 52 -7 57 -45 36z m33 -39 c-4 -55 -28 -64 -28 -10 0 21 3
42 7 45 16 17 24 4 21 -35z"/>
<path d="M633 765 c-29 -12 -33 -19 -33 -53 0 -21 5 -43 12 -50 9 -9 9 -12 0
-12 -8 0 -12 -17 -12 -45 0 -36 3 -45 18 -45 13 0 14 2 4 9 -17 10 -12 73 6
79 8 2 12 -9 12 -37 0 -26 5 -41 13 -41 8 0 12 16 12 48 0 46 -1 48 -25 45
l-25 -3 25 12 c21 11 25 20 25 61 0 26 0 47 0 47 0 -1 -15 -7 -32 -15z m-5
-86 c-10 -6 -14 1 -16 28 -2 22 2 39 10 44 10 6 14 -1 16 -28 2 -22 -2 -39
-10 -44z"/>
<path d="M742 653 c-2 -40 -6 -53 -17 -53 -11 0 -15 11 -15 40 0 24 5 40 12
40 6 0 9 2 6 5 -3 3 -14 2 -24 -2 -15 -6 -19 -18 -19 -55 0 -45 1 -47 25 -41
38 9 42 16 37 69 l-3 49 -2 -52z"/>
<path d="M738 543 c6 -65 10 -70 11 -15 0 28 -3 52 -7 52 -4 0 -6 -17 -4 -37z"/>
<path d="M690 520 c0 -45 2 -50 23 -50 16 0 18 3 8 9 -9 6 -12 22 -9 50 2 29
0 41 -9 41 -9 0 -13 -16 -13 -50z"/>
<path d="M630 551 c-20 -5 -26 -14 -28 -45 -2 -21 0 -42 5 -47 4 -4 6 12 5 36
-3 37 -1 45 13 45 14 0 16 -7 13 -40 -3 -31 0 -40 12 -40 12 0 15 9 12 41 -3
28 0 44 9 50 12 7 11 9 -1 8 -8 -1 -26 -4 -40 -8z"/>
<path d="M703 453 c-8 -3 -13 -23 -13 -49 0 -42 1 -44 30 -44 29 0 30 1 30 50
0 51 -9 59 -47 43z m37 -43 c0 -29 -4 -40 -15 -40 -11 0 -15 11 -15 40 0 29 4
40 15 40 11 0 15 -11 15 -40z"/>
<path d="M638 405 c3 -37 1 -45 -13 -45 -14 0 -16 7 -13 40 2 22 0 40 -4 40
-5 0 -8 -20 -8 -45 0 -45 0 -46 33 -43 31 2 32 3 28 41 -2 26 1 42 10 48 10 6
7 9 -11 9 -24 0 -25 -3 -22 -45z"/>
<path d="M738 313 c6 -65 10 -70 11 -15 0 28 -3 52 -7 52 -4 0 -6 -17 -4 -37z"/>
<path d="M604 326 c-3 -8 -4 -29 -1 -48 3 -30 4 -29 5 10 2 30 6 42 17 42 11
0 15 -11 15 -40 0 -22 5 -40 10 -40 6 0 10 18 10 40 0 29 4 40 15 40 11 0 15
-11 15 -40 0 -22 5 -40 10 -40 6 0 10 20 10 45 l0 45 -50 0 c-34 0 -52 -5 -56
-14z"/>
<path d="M1140 896 l0 -715 240 0 240 0 0 367 0 368 -32 18 -33 17 28 -21 27
-22 0 -359 0 -359 -70 0 -70 0 0 401 c0 378 1 401 18 395 15 -6 15 -5 -1 8
-10 8 -24 13 -30 12 -15 -2 -87 -46 -87 -53 0 -2 15 5 34 16 18 12 36 21 40
21 3 0 6 -180 6 -400 l0 -400 -70 0 -70 0 0 359 0 359 28 22 c15 12 20 18 12
14 -8 -4 -23 -14 -32 -22 -17 -14 -18 -1 -18 258 l0 273 -72 76 c-40 42 -76
78 -80 79 -5 2 -8 -318 -8 -712z m150 -73 l0 -633 -70 0 -70 0 0 702 0 702 70
-69 70 -69 0 -633z"/>
<path d="M1160 1553 c0 -7 5 -15 10 -18 6 -4 33 -33 60 -66 28 -33 50 -57 50
-53 0 6 -43 59 -112 139 -5 5 -8 5 -8 -2z"/>
<path d="M1178 1479 c17 -22 15 -34 -3 -19 -9 8 -15 8 -15 2 0 -6 4 -12 8 -14
5 -1 31 -29 60 -60 40 -45 50 -52 49 -34 -1 12 -27 49 -57 82 -30 33 -49 52
-42 43z m84 -104 l11 -20 -23 20 c-12 11 -31 34 -43 50 l-20 30 32 -30 c18
-16 37 -39 43 -50z"/>
<path d="M1198 1370 c53 -58 55 -77 2 -25 -22 21 -40 37 -40 34 0 -3 26 -32
59 -65 48 -49 59 -55 59 -37 0 13 -24 44 -62 80 -37 36 -45 41 -18 13z m63
-77 c13 -16 12 -17 -3 -4 -10 7 -18 15 -18 17 0 8 8 3 21 -13z"/>
<path d="M1205 1272 c56 -59 51 -71 -7 -15 -21 20 -38 32 -38 26 0 -6 4 -13 9
-15 5 -1 32 -24 59 -50 43 -41 49 -44 49 -25 -1 14 -24 43 -61 77 l-61 54 50
-52z"/>
<path d="M1215 1177 c33 -31 55 -56 49 -57 -6 0 -19 9 -30 21 -10 12 -32 30
-49 42 -34 23 -30 19 42 -47 46 -42 52 -45 50 -25 -1 22 -53 76 -101 108 -12
7 6 -12 39 -42z"/>
<path d="M1180 1126 c0 -2 23 -23 50 -46 28 -23 50 -38 49 -33 0 8 -99 87 -99
79z"/>
<path d="M1160 1108 c21 -22 120 -97 120 -91 0 5 -21 24 -47 43 -42 32 -85 60
-73 48z"/>
<path d="M1161 1047 c2 -1 13 -9 24 -17 19 -14 19 -14 6 3 -7 9 -18 17 -24 17
-6 0 -8 -1 -6 -3z"/>
<path d="M1180 1003 c14 -9 42 -30 63 -46 20 -16 37 -25 37 -20 -1 9 -104 83
-117 83 -4 0 4 -8 17 -17z"/>
<path d="M1210 1016 c0 -2 16 -16 35 -30 19 -15 35 -23 35 -19 0 4 -16 18 -35
31 -19 12 -35 20 -35 18z"/>
<path d="M1160 965 c0 -2 27 -23 60 -45 33 -22 60 -37 60 -33 -1 8 -120 86
-120 78z"/>
<path d="M1161 927 c17 -14 79 -48 79 -44 0 7 -65 47 -75 47 -5 0 -6 -1 -4 -3z"/>
<path d="M1250 876 c0 -2 7 -9 15 -16 9 -7 15 -8 15 -2 0 5 -7 12 -15 16 -8 3
-15 4 -15 2z"/>
<path d="M1190 856 c0 -3 14 -12 30 -21 17 -9 30 -13 30 -11 0 3 -13 12 -30
21 -16 9 -30 13 -30 11z"/>
<path d="M1190 826 c0 -2 20 -16 45 -29 25 -14 45 -22 45 -18 0 4 -20 17 -45
29 -25 12 -45 20 -45 18z"/>
<path d="M1265 810 c3 -5 8 -10 11 -10 2 0 4 5 4 10 0 6 -5 10 -11 10 -5 0 -7
-4 -4 -10z"/>
<path d="M1160 785 c0 -8 101 -56 109 -53 5 2 -18 15 -50 30 -33 15 -59 25
-59 23z"/>
<path d="M1160 752 c0 -8 61 -34 67 -29 1 2 -13 11 -32 20 -19 9 -35 13 -35 9z"/>
<path d="M1265 700 c3 -5 8 -10 11 -10 2 0 4 5 4 10 0 6 -5 10 -11 10 -5 0 -7
-4 -4 -10z"/>
<path d="M1190 680 c8 -5 20 -10 25 -10 6 0 3 5 -5 10 -8 5 -19 10 -25 10 -5
0 -3 -5 5 -10z"/>
<path d="M1160 664 c0 -7 52 -25 57 -20 2 2 -10 8 -26 14 -17 6 -31 9 -31 6z"/>
<path d="M1258 653 c7 -3 16 -2 19 1 4 3 -2 6 -13 5 -11 0 -14 -3 -6 -6z"/>
<path d="M1250 626 c14 -8 27 -12 29 -10 6 6 -1 11 -29 18 l-25 7 25 -15z"/>
<path d="M1210 585 c19 -7 44 -14 55 -14 11 0 0 7 -25 15 -57 17 -77 17 -30
-1z"/>
<path d="M1188 563 c7 -3 16 -2 19 1 4 3 -2 6 -13 5 -11 0 -14 -3 -6 -6z"/>
<path d="M1250 546 c0 -2 7 -7 16 -10 8 -3 12 -2 9 4 -6 10 -25 14 -25 6z"/>
<path d="M1198 503 c7 -3 16 -2 19 1 4 3 -2 6 -13 5 -11 0 -14 -3 -6 -6z"/>
<path d="M1238 493 c7 -3 16 -2 19 1 4 3 -2 6 -13 5 -11 0 -14 -3 -6 -6z"/>
<path d="M1198 473 c6 -2 18 -2 25 0 6 3 1 5 -13 5 -14 0 -19 -2 -12 -5z"/>
<path d="M1240 466 c0 -2 9 -6 20 -9 11 -3 18 -1 14 4 -5 9 -34 13 -34 5z"/>
<path d="M1168 423 c6 -2 18 -2 25 0 6 3 1 5 -13 5 -14 0 -19 -2 -12 -5z"/>
<path d="M1223 413 c9 -2 23 -2 30 0 6 3 -1 5 -18 5 -16 0 -22 -2 -12 -5z"/>
<path d="M1168 393 c6 -2 18 -2 25 0 6 3 1 5 -13 5 -14 0 -19 -2 -12 -5z"/>
<path d="M1220 386 c0 -2 13 -6 29 -8 17 -2 28 -1 25 4 -5 8 -54 12 -54 4z"/>
<path d="M1178 333 c12 -2 32 -2 45 0 12 2 2 4 -23 4 -25 0 -35 -2 -22 -4z"/>
<path d="M1183 303 c15 -2 39 -2 55 0 15 2 2 4 -28 4 -30 0 -43 -2 -27 -4z"/>
<path d="M1073 1506 c-29 -37 -33 -51 -33 -102 l1 -59 39 44 c37 40 40 48 40
102 0 33 -3 59 -7 59 -5 0 -23 -20 -40 -44z m28 -79 c-8 -8 -11 4 -11 39 0 66
14 80 18 19 2 -26 -2 -53 -7 -58z m-40 -50 c-8 -8 -11 4 -11 39 0 66 14 80 18
19 2 -26 -2 -53 -7 -58z"/>
<path d="M1018 1303 c-13 -14 -18 -36 -18 -79 l0 -58 21 20 c16 17 20 31 17
78 -3 56 -4 58 -20 39z m3 -106 c-8 -8 -11 4 -11 39 0 66 14 80 18 19 2 -26
-2 -53 -7 -58z"/>
<path d="M810 777 l0 -527 70 0 70 0 0 461 0 462 -35 33 c-18 19 -37 34 -40
34 -3 0 -19 15 -36 32 l-29 32 0 -527z m67 -274 c-1 -136 -2 -27 -2 242 0 270
1 381 2 248 2 -133 2 -353 0 -490z m30 -11 c-1 -130 -2 -23 -2 238 0 261 1
368 2 237 2 -130 2 -344 0 -475z"/>
<path d="M1098 1243 c-19 -21 -26 -133 -9 -133 22 0 32 32 29 90 -3 60 -4 62
-20 43z m12 -58 c0 -30 -4 -55 -10 -55 -11 0 -14 93 -3 103 12 12 13 8 13 -48z"/>
<path d="M1017 1162 c-14 -15 -17 -33 -15 -71 3 -48 4 -51 21 -39 15 11 18 25
15 72 -3 57 -3 58 -21 38z m13 -52 c0 -27 -4 -50 -10 -50 -11 0 -14 83 -3 93
12 12 13 8 13 -43z"/>
<path d="M1092 1098 c-7 -7 -12 -39 -12 -75 0 -61 1 -63 20 -51 17 11 20 24
20 75 0 63 -6 73 -28 51z m18 -57 c0 -28 -4 -53 -10 -56 -6 -4 -10 15 -10 49
0 31 5 56 10 56 6 0 10 -22 10 -49z"/>
<path d="M278 1064 c-38 -20 -36 -28 2 -9 17 9 30 18 30 20 0 7 -1 6 -32 -11z"/>
<path d="M480 1055 c0 -2 18 -14 40 -25 22 -11 40 -18 40 -15 0 2 -18 14 -40
25 -22 11 -40 18 -40 15z"/>
<path d="M410 1013 c0 -36 4 -40 60 -76 33 -20 63 -37 67 -37 5 0 -20 18 -54
40 -50 31 -63 45 -63 65 0 28 9 32 29 13 11 -10 12 -10 7 -1 -4 7 -16 18 -27
23 -17 10 -19 7 -19 -27z"/>
<path d="M325 1030 c-3 -5 -1 -10 4 -10 6 0 11 5 11 10 0 6 -2 10 -4 10 -3 0
-8 -4 -11 -10z"/>
<path d="M1012 1028 c-13 -13 -17 -118 -4 -118 20 0 32 28 32 77 0 54 -6 63
-28 41z m9 -101 c-8 -8 -11 4 -11 39 0 66 14 80 18 19 2 -26 -2 -53 -7 -58z"/>
<path d="M495 986 c17 -14 34 -26 39 -26 11 0 11 0 -34 29 l-35 23 30 -26z"/>
<path d="M230 969 c-21 -17 -22 -19 -3 -10 12 6 24 11 27 11 3 0 6 -31 6 -70
0 -66 -1 -70 -25 -76 -14 -3 -25 -10 -25 -15 0 -5 14 -3 30 6 30 15 30 17 30
95 0 44 -3 80 -7 80 -5 0 -19 -10 -33 -21z"/>
<path d="M1510 976 c0 -3 9 -10 20 -16 11 -6 20 -8 20 -6 0 3 -9 10 -20 16
-11 6 -20 8 -20 6z"/>
<path d="M1073 937 c-31 -21 -33 -26 -33 -79 0 -62 1 -64 31 -48 15 9 19 22
19 70 0 32 5 62 11 66 8 4 10 -12 7 -54 -1 -33 0 -58 5 -55 4 2 7 31 7 64 0
32 -3 59 -7 58 -5 0 -23 -10 -40 -22z m-12 -120 c-8 -8 -11 4 -11 39 0 66 14
80 18 19 2 -26 -2 -53 -7 -58z"/>
<path d="M1480 930 c0 -24 9 -37 48 -65 56 -41 72 -43 72 -10 0 18 -14 35 -53
65 -30 22 -57 40 -60 40 -4 0 -7 -13 -7 -30z m108 -69 c4 -28 -1 -27 -54 9
-33 23 -44 38 -44 56 l0 26 48 -35 c26 -19 48 -45 50 -56z"/>
<path d="M410 905 c0 -30 5 -37 41 -56 23 -11 38 -16 35 -11 -3 5 -19 15 -36
22 -24 10 -30 19 -30 42 0 32 2 32 84 -19 21 -14 35 -20 32 -14 -7 10 -109 71
-120 71 -3 0 -6 -16 -6 -35z"/>
<path d="M1358 900 l-37 -30 0 -115 c0 -121 4 -129 43 -100 30 23 36 18 36
-25 0 -22 4 -40 8 -40 5 0 6 20 2 45 -4 25 -4 45 -1 45 4 0 5 18 3 40 -3 27 0
40 8 40 8 0 11 -12 8 -35 -2 -19 0 -35 4 -35 15 0 9 78 -7 84 -18 6 -21 76 -4
76 7 0 10 -13 7 -34 -2 -19 0 -32 4 -30 4 3 8 23 8 45 0 36 -2 39 -19 29 -18
-9 -20 -6 -23 30 l-3 41 -37 -31z m40 -72 c8 -64 7 -69 -14 -83 -22 -14 -22
-13 -26 31 -2 36 1 48 17 60 11 8 14 12 8 9 -14 -7 -19 46 -6 59 9 9 10 6 21
-76z m-57 -11 c-8 -8 -11 -2 -11 19 0 40 14 54 18 19 2 -15 -1 -32 -7 -38z m7
-56 c-2 -44 -18 -46 -18 -2 0 25 7 41 17 41 2 0 3 -18 1 -39z m33 -84 c-8 -8
-11 -2 -11 19 0 40 14 54 18 19 2 -15 -1 -32 -7 -38z m-31 3 c0 -16 -4 -30
-10 -30 -5 0 -10 14 -10 30 0 17 5 30 10 30 6 0 10 -13 10 -30z"/>
<path d="M1480 836 c0 -27 6 -38 23 -46 20 -10 20 -10 5 3 -23 18 -25 62 -3
53 22 -8 18 1 -5 14 -18 10 -20 8 -20 -24z"/>
<path d="M410 805 c0 -30 5 -37 41 -55 23 -12 43 -20 45 -17 2 2 -14 12 -36
22 -33 15 -40 23 -40 47 l0 28 60 -30 c33 -17 60 -28 60 -25 0 5 -115 65 -125
65 -3 0 -5 -16 -5 -35z"/>
<path d="M525 810 c3 -5 8 -10 11 -10 2 0 4 5 4 10 0 6 -5 10 -11 10 -5 0 -7
-4 -4 -10z"/>
<path d="M1573 807 c9 -8 17 -24 17 -36 0 -21 -1 -21 -30 -6 -16 9 -30 13 -30
11 0 -6 55 -36 65 -36 3 0 5 13 5 30 0 20 -7 33 -22 40 -21 10 -21 10 -5 -3z"/>
<path d="M230 785 c-14 -8 -20 -14 -15 -14 6 -1 17 4 25 9 13 8 16 -2 21 -68
l5 -77 2 83 c1 45 -1 82 -5 82 -5 -1 -19 -7 -33 -15z"/>
<path d="M1033 773 c-32 -16 -33 -18 -31 -77 l2 -61 3 55 c2 30 9 60 14 65 8
7 10 -8 7 -48 -1 -31 -2 -57 -1 -57 1 0 14 5 28 12 23 10 25 17 25 70 0 32 -3
58 -7 57 -5 0 -23 -8 -40 -16z m28 -96 c-8 -8 -11 4 -11 39 0 66 14 80 18 19
2 -26 -2 -53 -7 -58z"/>
<path d="M1480 741 c0 -29 30 -62 55 -61 5 1 -3 8 -19 16 -23 13 -27 21 -24
45 3 16 1 29 -4 29 -4 0 -8 -13 -8 -29z"/>
<path d="M1510 756 c0 -3 18 -15 40 -26 40 -20 54 -53 28 -63 -8 -3 -5 -6 5
-6 14 -1 18 5 15 26 -2 21 -14 34 -45 51 -24 13 -43 21 -43 18z"/>
<path d="M410 700 c0 -22 3 -40 8 -40 4 0 6 18 4 40 -2 22 -6 40 -8 40 -2 0
-4 -18 -4 -40z"/>
<path d="M440 720 c8 -5 20 -10 25 -10 6 0 3 5 -5 10 -8 5 -19 10 -25 10 -5 0
-3 -5 5 -10z"/>
<path d="M510 690 c8 -5 20 -10 25 -10 6 0 3 5 -5 10 -8 5 -19 10 -25 10 -5 0
-3 -5 5 -10z"/>
<path d="M1425 640 c0 -22 3 -40 8 -40 4 0 7 18 7 40 0 22 -3 40 -7 40 -5 0
-8 -18 -8 -40z"/>
<path d="M1482 643 c1 -37 1 -37 5 -6 l4 33 50 -25 c35 -18 49 -31 49 -46 0
-16 -4 -19 -22 -14 -18 5 -20 4 -8 -4 26 -18 40 -12 40 17 0 24 -8 32 -55 55
-31 15 -58 27 -60 27 -3 0 -4 -17 -3 -37z"/>
<path d="M1108 605 c-1 -36 0 -65 5 -65 4 0 7 29 7 65 0 36 -2 65 -4 65 -2 0
-6 -29 -8 -65z"/>
<path d="M450 652 c8 -5 26 -13 40 -16 17 -5 20 -4 10 2 -8 5 -26 13 -40 16
-17 5 -20 4 -10 -2z"/>
<path d="M1081 593 c2 -70 6 -63 11 20 2 26 0 47 -4 47 -5 0 -7 -30 -7 -67z"/>
<path d="M411 593 c2 -35 2 -35 6 -8 3 16 10 33 16 37 8 5 6 8 -5 8 -14 0 -18
-8 -17 -37z"/>
<path d="M1007 623 c-10 -9 -9 -113 1 -113 4 0 5 25 4 55 -3 34 0 55 7 55 5 0
12 -24 14 -52 l3 -53 2 58 c2 42 -2 57 -11 57 -8 0 -17 -3 -20 -7z"/>
<path d="M260 527 l5 -82 3 74 c2 41 -1 78 -5 82 -4 4 -6 -29 -3 -74z"/>
<path d="M1510 600 c8 -5 20 -10 25 -10 6 0 3 5 -5 10 -8 5 -19 10 -25 10 -5
0 -3 -5 5 -10z"/>
<path d="M215 590 c-3 -6 1 -7 9 -4 18 7 21 14 7 14 -6 0 -13 -4 -16 -10z"/>
<path d="M518 593 c7 -3 16 -2 19 1 4 3 -2 6 -13 5 -11 0 -14 -3 -6 -6z"/>
<path d="M1428 550 c2 -22 6 -40 8 -40 2 0 4 18 4 40 0 22 -3 40 -8 40 -4 0
-6 -18 -4 -40z"/>
<path d="M1402 544 c-1 -28 3 -44 12 -47 8 -3 17 -23 19 -44 l4 -38 1 41 c1
28 -3 44 -12 47 -8 3 -17 23 -19 44 l-4 38 -1 -41z"/>
<path d="M1482 548 c2 -17 9 -33 16 -34 7 -1 8 0 2 3 -14 7 -13 50 3 56 7 3 4
6 -6 6 -15 1 -18 -5 -15 -31z"/>
<path d="M438 553 c7 -3 16 -2 19 1 4 3 -2 6 -13 5 -11 0 -14 -3 -6 -6z"/>
<path d="M1352 528 c-1 -20 -7 -40 -13 -44 -8 -5 -10 4 -7 29 2 20 0 33 -4 31
-4 -3 -8 -21 -8 -40 0 -31 3 -35 20 -29 18 6 20 2 20 -33 0 -25 5 -42 14 -45
8 -3 17 -21 19 -39 3 -24 4 -22 3 10 -1 23 4 42 9 42 6 0 9 17 7 40 -4 36 -6
39 -27 34 -22 -5 -24 -2 -28 38 -3 41 -4 42 -5 6z m38 -88 c0 -16 -4 -30 -10
-30 -5 0 -10 14 -10 30 0 17 5 30 10 30 6 0 10 -13 10 -30z"/>
<path d="M1568 548 c14 -7 23 -21 23 -37 l2 -26 4 24 c5 25 -18 52 -41 50 -6
0 -1 -5 12 -11z"/>
<path d="M478 543 c7 -3 16 -2 19 1 4 3 -2 6 -13 5 -11 0 -14 -3 -6 -6z"/>
<path d="M518 533 c7 -3 16 -2 19 1 4 3 -2 6 -13 5 -11 0 -14 -3 -6 -6z"/>
<path d="M412 493 c2 -31 7 -38 26 -39 18 -1 19 -1 2 3 -14 3 -20 12 -20 33 0
16 6 31 13 33 7 3 4 6 -6 6 -15 1 -18 -6 -15 -36z"/>
<path d="M458 513 c7 -3 16 -2 19 1 4 3 -2 6 -13 5 -11 0 -14 -3 -6 -6z"/>
<path d="M1108 460 c3 -39 0 -60 -7 -60 -7 0 -11 22 -11 55 0 37 -4 55 -12 55
-9 0 -12 -17 -10 -60 4 -56 5 -60 28 -60 23 0 24 3 24 65 0 36 -3 65 -7 65 -5
0 -6 -27 -5 -60z"/>
<path d="M498 503 c7 -3 16 -2 19 1 4 3 -2 6 -13 5 -11 0 -14 -3 -6 -6z"/>
<path d="M1041 443 c0 -35 2 -63 7 -63 4 0 6 21 4 48 -5 75 -10 82 -11 15z"/>
<path d="M1558 493 c7 -3 16 -2 19 1 4 3 -2 6 -13 5 -11 0 -14 -3 -6 -6z"/>
<path d="M1480 455 c0 -19 3 -35 8 -35 4 0 7 16 7 35 0 19 -3 35 -7 35 -5 0
-8 -16 -8 -35z"/>
<path d="M1518 473 c7 -3 16 -2 19 1 4 3 -2 6 -13 5 -11 0 -14 -3 -6 -6z"/>
<path d="M1568 460 c26 -11 30 -47 5 -53 -14 -4 -12 -5 5 -6 18 -1 22 4 22 28
0 27 -15 42 -43 40 -7 0 -2 -4 11 -9z"/>
<path d="M218 443 c6 -2 18 -2 25 0 6 3 1 5 -13 5 -14 0 -19 -2 -12 -5z"/>
<path d="M488 443 c6 -2 18 -2 25 0 6 3 1 5 -13 5 -14 0 -19 -2 -12 -5z"/>
<path d="M410 390 c0 -39 1 -40 33 -39 31 2 31 2 3 6 -25 4 -28 8 -24 39 2 19
0 34 -4 34 -4 0 -8 -18 -8 -40z"/>
<path d="M255 339 c0 -43 3 -79 8 -79 4 0 7 33 7 74 0 41 -3 77 -7 79 -5 3 -8
-30 -8 -74z"/>
<path d="M463 413 c9 -2 23 -2 30 0 6 3 -1 5 -18 5 -16 0 -22 -2 -12 -5z"/>
<path d="M1518 413 c7 -3 16 -2 19 1 4 3 -2 6 -13 5 -11 0 -14 -3 -6 -6z"/>
<path d="M1350 355 c0 -44 -17 -46 -23 -2 -4 31 -4 31 -5 -5 -2 -34 0 -38 23
-38 23 0 25 4 25 40 0 22 -4 40 -10 40 -5 0 -10 -16 -10 -35z"/>
<path d="M1482 358 c3 -29 7 -33 33 -34 28 -1 28 -1 3 3 -22 3 -28 10 -28 28
0 18 6 25 28 28 25 4 24 4 -6 6 -32 1 -33 0 -30 -31z"/>
<path d="M1573 374 c15 -5 18 -13 15 -35 -3 -18 -1 -26 5 -20 16 16 4 56 -18
58 -17 2 -18 1 -2 -3z"/>
<path d="M1082 308 l2 -63 3 58 c2 31 8 57 13 57 5 0 11 -26 13 -57 l3 -58 2
63 c2 56 0 62 -18 62 -18 0 -20 -6 -18 -62z"/>
<path d="M1002 303 l2 -58 3 53 c2 28 8 52 13 52 5 0 11 -24 13 -52 l3 -53 2
58 c2 51 0 57 -18 57 -18 0 -20 -6 -18 -57z"/>
<path d="M508 343 c6 -2 18 -2 25 0 6 3 1 5 -13 5 -14 0 -19 -2 -12 -5z"/>
<path d="M412 288 l-2 -38 68 2 67 2 -62 3 c-61 4 -62 4 -66 36 -4 31 -4 31
-5 -5z"/>
<path d="M463 313 c15 -2 39 -2 55 0 15 2 2 4 -28 4 -30 0 -43 -2 -27 -4z"/>
<path d="M1402 272 c-2 -36 1 -43 16 -40 12 2 17 14 18 43 l1 40 -4 -37 c-2
-21 -8 -38 -13 -38 -5 0 -11 17 -13 38 l-4 37 -1 -43z"/>
<path d="M1322 258 l1 -43 4 38 c5 46 20 49 26 5 4 -32 4 -32 5 5 2 31 -1 37
-18 37 -17 0 -20 -6 -18 -42z"/>
<path d="M1480 265 l0 -35 60 0 60 0 0 30 c0 17 -4 30 -9 30 -4 0 -6 -11 -3
-25 4 -24 2 -25 -47 -25 -47 0 -51 2 -51 24 0 18 7 26 23 29 19 4 18 4 -5 6
-26 1 -28 -2 -28 -34z"/>
</g>
</svg>
